<svg xmlns="http://www.w3.org/2000/svg" viewBox="0 0 512 512">
  <title>align-right</title>
  <g id="align-right">
    <path d="M356.59,306.31c0-10.07-6.72-16.79-16.79-16.79H239.06c-10.08,0-16.79,6.72-16.79,16.79V407.05c0,10.07,6.71,16.79,16.79,16.79H339.8c10.07,0,16.79-6.72,16.79-16.79ZM339.8,88c10.07,0,16.79,6.71,16.79,16.79V205.57c0,10.07-6.72,16.79-16.79,16.79H71.16c-10.08,0-16.79-6.72-16.79-16.79V104.83C54.37,94.75,61.08,88,71.16,88ZM323,121.62H88v67.16H323V121.62M423.75,20.88h33.58V491H423.75Z"/>
  </g>
</svg>
