<svg xmlns="http://www.w3.org/2000/svg" viewBox="0 0 512 512">
  <title>align-top</title>
  <g id="align-top">
    <path d="M306.44,121.21c-10.07,0-16.78,6.71-16.78,16.78V238.66c0,10.06,6.71,16.77,16.78,16.77H407.11c10.06,0,16.78-6.71,16.78-16.77V138c0-10.07-6.72-16.78-16.78-16.78ZM88.32,138c0-10.07,6.71-16.78,16.78-16.78H205.77c10.06,0,16.78,6.71,16.78,16.78V406.44c0,10.07-6.72,16.78-16.78,16.78H105.1c-10.07,0-16.78-6.71-16.78-16.78Zm33.55,16.77v234.9H189V154.76H121.87M21.2,54.09V20.54H491V54.09Z"/>
  </g>
</svg>
