<svg xmlns="http://www.w3.org/2000/svg" viewBox="0 0 512 512">
  <title>align-bottom</title>
  <g id="align-bottom">
    <path d="M306.66,255.84c-10.06,0-16.76,6.7-16.76,16.75V373.14c0,10.06,6.7,16.76,16.76,16.76H407.21c10.05,0,16.76-6.7,16.76-16.76V272.59c0-10-6.71-16.75-16.76-16.75ZM88.8,105c0-10.05,6.7-16.76,16.76-16.76H206.11c10,0,16.76,6.71,16.76,16.76V373.14c0,10.06-6.71,16.76-16.76,16.76H105.56c-10.06,0-16.76-6.7-16.76-16.76Zm33.51,16.76V356.39h67V121.77h-67M491,456.94v33.51H21.76V456.94Z"/>
  </g>
</svg>
