<svg xmlns="http://www.w3.org/2000/svg" viewBox="0 0 512 512">
  <title>align-left</title>
  <g id="align-left">
    <path d="M286.44,306.36c0-10.07-6.15-16.79-15.39-16.79H178.72c-9.23,0-15.39,6.72-15.39,16.79V407.07c0,10.07,6.16,16.79,15.39,16.79h92.33c9.24,0,15.39-6.72,15.39-16.79ZM424.94,88.14c9.23,0,15.39,6.72,15.39,16.79V205.64c0,10.07-6.16,16.79-15.39,16.79H178.72c-9.23,0-15.39-6.72-15.39-16.79V104.93c0-10.07,6.16-16.79,15.39-16.79Zm-15.39,33.57H194.11v67.15H409.55V121.71M101.78,491H71V21h30.78Z"/>
  </g>
</svg>
