<svg xmlns="http://www.w3.org/2000/svg" viewBox="0 0 512 512">
  <title>align-h-center</title>
  <g id="align-h-center">
    <path d="M323.38,373.05V138.38h67.05V373.05ZM424,389.82V272.48H491V239H424V121.62c0-10.06-6.7-16.76-16.76-16.76H306.61c-10.05,0-16.76,6.7-16.76,16.76V239H222.8V188.67c0-10.06-6.7-16.76-16.76-16.76H105.47c-10.06,0-16.77,6.7-16.77,16.76V239H21.65v33.52H88.7v50.29c0,10.05,6.71,16.76,16.77,16.76H206c10.06,0,16.76-6.71,16.76-16.76V272.48h67.05V389.82c0,10.05,6.71,16.76,16.76,16.76H407.19C417.25,406.58,424,399.87,424,389.82Z"/>
  </g>
</svg>
