<svg xmlns="http://www.w3.org/2000/svg" viewBox="0 0 512 512">
  <title>align-v-center</title>
  <g id="align-v-center">
    <path d="M373.9,188.78H138.84V121.62H373.9ZM390.69,88H273.16V20.88H239.58V88H122.05c-10.07,0-16.79,6.71-16.79,16.79V205.57c0,10.07,6.72,16.79,16.79,16.79H239.58v67.16H189.21c-10.07,0-16.79,6.72-16.79,16.79V407.05c0,10.07,6.72,16.79,16.79,16.79h50.37V491h33.58V423.84h50.37c10.08,0,16.79-6.72,16.79-16.79V306.31c0-10.07-6.71-16.79-16.79-16.79H273.16V222.36H390.69c10.08,0,16.79-6.72,16.79-16.79V104.83C407.48,94.75,400.77,88,390.69,88Z"/>
  </g>
</svg>
