<svg xmlns="http://www.w3.org/2000/svg" viewBox="0 0 512 512">
  <title>move-to-back</title>
  <g id="move-to-back">
    <path d="M390.3,256V373.52c0,10.07-6.71,16.78-16.78,16.78H256V272.81c0-10.06-6.71-16.78-16.78-16.78H121.76V138.55c0-10.07,6.72-16.79,16.79-16.79H256V239.25c0,10.07,6.71,16.78,16.78,16.78ZM205.68,289.6H37.85c-10.07,0-16.79,6.71-16.79,16.78V474.22c0,10.07,6.72,16.78,16.79,16.78H205.68c10.07,0,16.78-6.71,16.78-16.78V306.38C222.46,296.31,215.75,289.6,205.68,289.6ZM188.9,323.17V457.43H54.63V323.17H188.9M474.22,21.06H306.38c-10.07,0-16.78,6.72-16.78,16.79V205.68c0,10.07,6.71,16.78,16.78,16.78H474.22c10.07,0,16.78-6.71,16.78-16.78V37.85C491,27.78,484.29,21.06,474.22,21.06ZM457.43,54.63V188.9H323.17V54.63H457.43"/>
  </g>
</svg>
