<svg id="move-to-front" xmlns="http://www.w3.org/2000/svg" viewBox="0 0 512 512">
  <title>move-to-front</title>
  <path d="M474.21,21H272.79C262.71,21,256,27.71,256,37.79V88.14h33.57V54.57H457.43V222.43H423.86V256h50.35c10.08,0,16.79-6.71,16.79-16.79V37.79C491,27.71,484.29,21,474.21,21ZM222.43,423.86v33.57H54.57V289.57H88.14V256H37.79C27.71,256,21,262.71,21,272.79V474.21C21,484.29,27.71,491,37.79,491H239.21c10.08,0,16.79-6.71,16.79-16.79V423.86ZM390.29,373.5c0,10.07-6.72,16.79-16.79,16.79h-235c-10.07,0-16.79-6.72-16.79-16.79v-235c0-10.07,6.72-16.79,16.79-16.79h235c10.07,0,16.79,6.72,16.79,16.79Z"/>
</svg>
